<svg xmlns="http://www.w3.org/2000/svg" width="60.998" height="61" viewBox="0 0 60.998 61">
  <g id="Icon_akar-share-arrow" data-name="Icon akar-share-arrow" transform="translate(-0.002 0)" fill="none" stroke-linecap="round" stroke-linejoin="round">
    <path d="M58,27.7,38.824,3V16.723C5.956,16.722,2.2,43.365,3.118,58l.019-.113C4.517,50.5,5.095,38.676,38.824,38.676V52.4L58,27.695Z" stroke="none"/>
    <path d="M 38.8237190246582 3.000003814697266 L 38.8237190246582 16.72250366210938 C 5.955707550048828 16.72250366210938 2.204708099365234 43.364501953125 3.117710113525391 58 L 3.136959075927734 57.88725280761719 C 4.517459869384766 50.50350189208984 5.094959259033203 38.67575073242188 38.8237190246582 38.67575073242188 L 38.8237190246582 52.39825057983398 L 57.99839782714844 27.69637298583984 L 38.8237190246582 3.000003814697266 M 57.99946975708008 27.69499206542969 L 57.99839782714844 27.69637298583984 L 57.99946975708008 27.69775009155273 L 57.99946975708008 27.69499206542969 M 38.82320022583008 -0.00017547607421875 C 39.73240661621094 -0.00017547607421875 40.61391448974609 0.413909912109375 41.19333648681641 1.160190582275391 L 60.31547164916992 25.78888320922852 C 60.74755477905273 26.31363677978516 60.99946975708008 26.98230743408203 60.99946975708008 27.69499206542969 L 60.99946975708008 27.69775009155273 C 60.99946975708008 28.41583633422852 60.74392700195312 29.08940887451172 60.30596923828125 29.61612510681152 L 41.19353866577148 54.23781204223633 C 40.4073486328125 55.2506217956543 39.06440734863281 55.65186309814453 37.85147094726562 55.23633193969727 C 36.63852691650391 54.8208122253418 35.8237190246582 53.68039321899414 35.8237190246582 52.39825057983398 L 35.8237190246582 41.70947265625 C 24.04890060424805 41.9807014465332 15.80654525756836 43.88644027709961 11.30009078979492 47.38465118408203 C 7.533168792724609 50.30879211425781 6.889968872070312 53.92950057983398 6.267948150634766 57.43099212646484 C 6.21038818359375 57.75503921508789 6.150909423828125 58.08984756469727 6.090286254882812 58.41487121582031 L 6.074920654296875 58.50489044189453 C 5.818634033203125 60.00603866577148 4.4783935546875 61.0770149230957 2.957588195800781 60.99572372436523 C 1.4368896484375 60.9144401550293 0.2183494567871094 59.70670318603516 0.1235275268554688 58.18678283691406 C -0.1265220642089844 54.17852020263672 -0.1137008666992188 48.05135345458984 1.367347717285156 41.62403106689453 C 2.964870452880859 34.69125366210938 5.904060363769531 28.9099006652832 10.10327911376953 24.44057083129883 C 16.23565292358398 17.91372299194336 24.87783813476562 14.33965301513672 35.8237190246582 13.79571151733398 L 35.8237190246582 3.000003814697266 C 35.8237190246582 1.717922210693359 36.63845062255859 0.5775413513183594 37.85131072998047 0.1619720458984375 C 38.17036819458008 0.05265045166015625 38.49864196777344 -0.00017547607421875 38.82320022583008 -0.00017547607421875 Z" stroke="none" fill="#00b8d4"/>
  </g>
</svg>
