<?xml version="1.0" encoding="UTF-8"?>
<svg id="Layer_1" xmlns="http://www.w3.org/2000/svg" version="1.1" viewBox="0 0 100 100">
  <!-- Generator: Adobe Illustrator 29.3.1, SVG Export Plug-In . SVG Version: 2.1.0 Build 151)  -->
  <defs>
    <style>
      .st0 {
        fill: #00b8d4;
      }
    </style>
  </defs>
  <path class="st0" d="M86.7,43.5c1.3-2.4,2-5.1,2-7.9,0-7.8-5.4-14.4-12.9-16.2-.9-7-6.9-12.4-14.1-12.4s-9.3,2.5-11.8,6.4c-2.5-3.8-6.9-6.4-11.8-6.4-7.2,0-13.2,5.4-14.1,12.4-7.5,1.8-12.9,8.4-12.9,16.2s.7,5.5,2,7.9c-3.9,2.6-6.3,7-6.2,11.8,0,6,3.8,11.3,9.4,13.3h0c0,5,3.1,9.1,7.6,10.5.2,7.7,6.5,13.9,14.2,13.9s9.2-2.5,11.8-6.3c2.6,3.8,6.9,6.3,11.8,6.3,7.7,0,14-6.2,14.2-13.9,4.5-1.4,7.6-5.6,7.6-10.4h0c5.5-2.1,9.4-7.4,9.4-13.4s-2.4-9.2-6.2-11.8h0ZM18.3,64.2c-3.8-1.3-6.5-4.8-6.5-9s1.8-6.5,4.8-8.2c2,1.2,4.9,2.3,8.1,2.3s5.3-.8,8-2.7c.5.2,1.1.3,1.6.4,1.3,3.2.4,6-.6,7.9-1.5,2.8-3.8,4.1-4.4,4.2-.3,0-.6,0-.9.2-4.6.5-8.2,3.3-9.9,4.9h-.2ZM47.7,77.1v3.1c-.7,4.6-4.7,8.1-9.4,8.1s-9.5-4.3-9.5-9.5,0-.6,0-.8v-.4c.1-.6,0-1.3-.4-1.8s-1-.8-1.6-.9c-3.2-.3-5.6-3-5.6-6.2s0-.5,0-.8c1.1-1.2,4.6-4.3,9-4.1,3,0,5.9,1.8,8.6,5.1-2.3,2.6-3.4,6.2-3.2,10.8,0,1.3,1.1,2.2,2.3,2.2h0c1.3,0,2.3-1.1,2.2-2.4,0-3.7.7-6.4,2.5-8.1,1.5-1.4,3.5-2,4.9-2.1v7.8h.2ZM47.7,64.6c-1.8.2-3.6.7-5.2,1.5-2.2-2.7-4.6-4.6-7.2-5.7.8-.8,1.5-1.7,2.1-2.7,1.9-3.2,2.6-6.7,1.9-10.1,3.3,0,6.3-.7,8.5-1.3v18.3h0ZM47.7,41.4c-2.9,1-9.5,2.7-15,.3-3.2-1.4-5.6-4.1-7-8.1-.4-1.2-1.8-1.9-3-1.4h0c-1.2.4-1.9,1.8-1.4,3,1.4,3.8,3.5,6.8,6.3,8.9-4.2,1.6-8.1-.7-9.2-1.4-1.5-2.1-2.4-4.5-2.4-7.1,0-5.4,3.7-10,8.8-11.5,1.4,4,4.7,8.9,11.3,8.9s1.5,0,2.3-.2c1.3-.2,2.1-1.4,1.9-2.7h0c-.2-1.3-1.4-2.2-2.7-1.9h0c-7.1,1.1-8.7-6.3-8.8-7.2,0-5.1,4.3-9.3,9.5-9.3s9.5,4.2,9.5,9.5v20.2h-.1ZM80.6,64.5c-1.3.2-2.1,1.5-1.9,2.8h0c0,.5,0,.9,0,1.4,0,3.2-2.4,5.9-5.6,6.2-.6,0-1.2.4-1.6.9s-.6,1.1-.5,1.8v.4c0,.3,0,.6,0,.8,0,5.3-4.3,9.5-9.5,9.5s-8.7-3.5-9.4-8.1v-6.1h4l1.1.9c-1.2,1.2-2,2.8-2,4.6,0,3.5,2.8,6.3,6.3,6.3s6.3-2.8,6.3-6.3-2.3-5.8-5.4-6.2l-4-3.4c-.4-.4-1-.6-1.5-.6h-4.8v-4.7h9.2l2.4,1.2v.9c0,3.5,2.8,6.3,6.3,6.3s6.3-2.8,6.3-6.3-2.8-6.3-6.3-6.3-2.8.5-3.9,1.4l-3.2-1.6c-.3-.2-.7-.2-1-.2h-9.8v-4.3h16.1l4.4,1c.8,2.5,3.2,4.4,6,4.4s6.3-2.8,6.3-6.3-2.8-6.3-6.3-6.3-4.6,1.5-5.7,3.6l-4-.9h-16.9v-3.9h15.3c.7,0,1.4-.3,1.8-.9l3.5-4.3h.6c3.5,0,6.3-2.8,6.3-6.3s-2.8-6.3-6.3-6.3-6.3,2.8-6.3,6.3.6,2.9,1.5,4l-2.2,2.7h-14.2v-4.4h9.3c1.3,0,2.3-1,2.3-2.3v-8.6c2.3-.9,4-3.2,4-5.9s-2.8-6.3-6.3-6.3-6.3,2.8-6.3,6.3,1.7,4.9,4,5.9v6.3h-6.9v-12.2c0-5.2,4.2-9.5,9.5-9.5s9.4,4.1,9.5,9.3c-.2,1.3.7,2.5,1.9,2.7h0c6.1.7,10.7,5.8,10.7,11.9s-.9,5.2-2.5,7.3c-.8,1-.6,2.5.4,3.3.2,0,.3.2.5.3,3.5,1.5,5.8,4.9,5.8,8.7s-3.2,8.4-7.7,9.3h0v-.2ZM60,79.7c0-.9.7-1.7,1.7-1.7s1.7.7,1.7,1.7h0c0,.9-.7,1.7-1.7,1.7s-1.7-.7-1.7-1.7ZM68.6,66.8c0-.9.7-1.7,1.7-1.7s1.7.7,1.7,1.7h0c0,.9-.7,1.7-1.7,1.7s-1.7-.7-1.7-1.7h0ZM77.3,54.8c0-.9.7-1.7,1.6-1.7s1.7.7,1.7,1.6h0c0,.9-.8,1.6-1.7,1.6s-1.6-.7-1.6-1.6h0ZM71.9,35.8c0-.9.8-1.6,1.7-1.6s1.6.7,1.6,1.6-.7,1.7-1.7,1.7-1.7-.7-1.7-1.7h0ZM60,21.2c0-.9.7-1.7,1.7-1.7s1.7.7,1.7,1.7h0c0,.9-.7,1.7-1.7,1.7s-1.7-.7-1.7-1.7Z"/>
  <path class="st0" d="M86.7,43.5c1.3-2.4,2-5.1,2-7.9,0-7.8-5.4-14.4-12.9-16.2-.9-7-6.9-12.4-14.1-12.4s-9.3,2.5-11.8,6.4c-2.5-3.8-6.9-6.4-11.8-6.4-7.2,0-13.2,5.4-14.1,12.4-7.5,1.8-12.9,8.4-12.9,16.2s.7,5.5,2,7.9c-3.9,2.6-6.3,7-6.2,11.8,0,6,3.8,11.3,9.4,13.3h0c0,5,3.1,9.1,7.6,10.5.2,7.7,6.5,13.9,14.2,13.9s9.2-2.5,11.8-6.3c2.6,3.8,6.9,6.3,11.8,6.3,7.7,0,14-6.2,14.2-13.9,4.5-1.4,7.6-5.6,7.6-10.4h0c5.5-2.1,9.4-7.4,9.4-13.4s-2.4-9.2-6.2-11.8h0ZM18.3,64.2c-3.8-1.3-6.5-4.8-6.5-9s1.8-6.5,4.8-8.2c2,1.2,4.9,2.3,8.1,2.3s5.3-.8,8-2.7c.5.2,1.1.3,1.6.4,1.3,3.2.4,6-.6,7.9-1.5,2.8-3.8,4.1-4.4,4.2-.3,0-.6,0-.9.2-4.6.5-8.2,3.3-9.9,4.9h-.2ZM47.7,77.1v3.1c-.7,4.6-4.7,8.1-9.4,8.1s-9.5-4.3-9.5-9.5,0-.6,0-.8v-.4c.1-.6,0-1.3-.4-1.8s-1-.8-1.6-.9c-3.2-.3-5.6-3-5.6-6.2s0-.5,0-.8c1.1-1.2,4.6-4.3,9-4.1,3,0,5.9,1.8,8.6,5.1-2.3,2.6-3.4,6.2-3.2,10.8,0,1.3,1.1,2.2,2.3,2.2h0c1.3,0,2.3-1.1,2.2-2.4,0-3.7.7-6.4,2.5-8.1,1.5-1.4,3.5-2,4.9-2.1v7.8h.2ZM47.7,64.6c-1.8.2-3.6.7-5.2,1.5-2.2-2.7-4.6-4.6-7.2-5.7.8-.8,1.5-1.7,2.1-2.7,1.9-3.2,2.6-6.7,1.9-10.1,3.3,0,6.3-.7,8.5-1.3v18.3h0ZM47.7,41.4c-2.9,1-9.5,2.7-15,.3-3.2-1.4-5.6-4.1-7-8.1-.4-1.2-1.8-1.9-3-1.4h0c-1.2.4-1.9,1.8-1.4,3,1.4,3.8,3.5,6.8,6.3,8.9-4.2,1.6-8.1-.7-9.2-1.4-1.5-2.1-2.4-4.5-2.4-7.1,0-5.4,3.7-10,8.8-11.5,1.4,4,4.7,8.9,11.3,8.9s1.5,0,2.3-.2c1.3-.2,2.1-1.4,1.9-2.7h0c-.2-1.3-1.4-2.2-2.7-1.9h0c-7.1,1.1-8.7-6.3-8.8-7.2,0-5.1,4.3-9.3,9.5-9.3s9.5,4.2,9.5,9.5v20.2h-.1ZM80.6,64.5c-1.3.2-2.1,1.5-1.9,2.8h0c0,.5,0,.9,0,1.4,0,3.2-2.4,5.9-5.6,6.2-.6,0-1.2.4-1.6.9s-.6,1.1-.5,1.8v.4c0,.3,0,.6,0,.8,0,5.3-4.3,9.5-9.5,9.5s-8.7-3.5-9.4-8.1v-6.1h4l1.1.9c-1.2,1.2-2,2.8-2,4.6,0,3.5,2.8,6.3,6.3,6.3s6.3-2.8,6.3-6.3-2.3-5.8-5.4-6.2l-4-3.4c-.4-.4-1-.6-1.5-.6h-4.8v-4.7h9.2l2.4,1.2v.9c0,3.5,2.8,6.3,6.3,6.3s6.3-2.8,6.3-6.3-2.8-6.3-6.3-6.3-2.8.5-3.9,1.4l-3.2-1.6c-.3-.2-.7-.2-1-.2h-9.8v-4.3h16.1l4.4,1c.8,2.5,3.2,4.4,6,4.4s6.3-2.8,6.3-6.3-2.8-6.3-6.3-6.3-4.6,1.5-5.7,3.6l-4-.9h-16.9v-3.9h15.3c.7,0,1.4-.3,1.8-.9l3.5-4.3h.6c3.5,0,6.3-2.8,6.3-6.3s-2.8-6.3-6.3-6.3-6.3,2.8-6.3,6.3.6,2.9,1.5,4l-2.2,2.7h-14.2v-4.4h9.3c1.3,0,2.3-1,2.3-2.3v-8.6c2.3-.9,4-3.2,4-5.9s-2.8-6.3-6.3-6.3-6.3,2.8-6.3,6.3,1.7,4.9,4,5.9v6.3h-6.9v-12.2c0-5.2,4.2-9.5,9.5-9.5s9.4,4.1,9.5,9.3c-.2,1.3.7,2.5,1.9,2.7h0c6.1.7,10.7,5.8,10.7,11.9s-.9,5.2-2.5,7.3c-.8,1-.6,2.5.4,3.3.2,0,.3.2.5.3,3.5,1.5,5.8,4.9,5.8,8.7s-3.2,8.4-7.7,9.3h0v-.2ZM60,79.7c0-.9.7-1.7,1.7-1.7s1.7.7,1.7,1.7h0c0,.9-.7,1.7-1.7,1.7s-1.7-.7-1.7-1.7ZM68.6,66.8c0-.9.7-1.7,1.7-1.7s1.7.7,1.7,1.7h0c0,.9-.7,1.7-1.7,1.7s-1.7-.7-1.7-1.7h0ZM77.3,54.8c0-.9.7-1.7,1.6-1.7s1.7.7,1.7,1.6h0c0,.9-.8,1.6-1.7,1.6s-1.6-.7-1.6-1.6h0ZM71.9,35.8c0-.9.8-1.6,1.7-1.6s1.6.7,1.6,1.6-.7,1.7-1.7,1.7-1.7-.7-1.7-1.7h0ZM60,21.2c0-.9.7-1.7,1.7-1.7s1.7.7,1.7,1.7h0c0,.9-.7,1.7-1.7,1.7s-1.7-.7-1.7-1.7Z"/>
</svg>