<?xml version="1.0" encoding="UTF-8"?>
<svg id="Layer_1" xmlns="http://www.w3.org/2000/svg" version="1.1" viewBox="0 0 100 100">
  <!-- Generator: Adobe Illustrator 29.3.1, SVG Export Plug-In . SVG Version: 2.1.0 Build 151)  -->
  <defs>
    <style>
      .st0 {
        fill: #00b8d4;
      }
    </style>
  </defs>
  <path class="st0" d="M86.7,43.5c5.3-9.3-.5-21.9-10.9-24.1-.9-12.9-20.9-17.1-25.9-6-6.5-10.9-24.8-6.7-25.9,6-10.5,1.7-16.7,17.2-10.9,24.1-9.6,5.9-7.5,21.7,3.2,25.1,0,5,3.1,9.1,7.6,10.5-.4,13.8,20.7,19.1,26,7.6,7.1,11.3,26.1,6,26-7.6,4.5-1.4,7.6-5.6,7.6-10.4h0c10.7-3.3,12.7-20.1,3.2-25.2h0ZM18.3,64.2c-7.6-2.1-8.8-14.1-1.7-17.2,4.3,2.8,11.6,3.4,16.1-.4.5.2,1.1.3,1.6.4,2.4,4.8-2,11.3-5,12.1-4.5.4-9.1,3.3-10.8,5.1,0,0-.2,0-.2,0ZM47.7,77.1c.4,16.6-19.8,12.7-18.9.9.7-5.2-8.1-1.5-7.6-10.1,3.3-4.5,13.2-6.2,17.6,1-1.9,1.8-6.1,11.8-.9,13,5.1-1-1-11.5,9.6-12.6v7.8s.2,0,.2,0ZM47.7,64.6c-1.8.2-3.6.7-5.2,1.5-2.2-2.7-4.6-4.6-7.2-5.7,3.3-3.3,5-8.4,4-12.8,3.3,0,6.3-.7,8.5-1.3v18.3h0ZM47.7,41.4c-5.9,2.8-19.7,2.3-22-7.8-.4-1.2-1.8-1.9-3-1.4-4.5,2.8,2.6,10,4.9,11.9-15.3,4.1-14.4-17.6-2.8-20,1.4,4,4.7,8.9,11.3,8.9s1.5,0,2.3-.2c1.3-.2,2.1-1.4,1.9-2.7h0c-.2-1.3-1.4-2.2-2.7-1.9-7.2,1-8.7-6.3-8.8-7.4.5-12.3,19.2-11.5,19,.4,0,.4,0,20.2,0,20.2h-.1ZM80.6,64.5c-1.3.2-2.1,1.5-1.9,2.8h0c.7,9.3-7.6,5.5-7.7,10.3-.3,16.1-22,13.5-18.9-3.5h4l1.1.9c-4.1,3.7-1.3,11.1,4.3,10.9,7.7.3,8.4-11.9.9-12.5-4.4-3.9-4.2-4.3-10.3-4v-4.7h9.2l2.4,1.2c-1.1,8.7,12.6,9.7,12.6.9.7-5.1-7.7-8.4-10.2-4.9-.7-.3-3.4-2-4.2-1.8,0,0-9.8,0-9.8,0v-4.3c3.4,0,17.6-.5,20.5,1,1.9,6.6,12,5.2,12.3-1.9.4-6.7-10.1-8.6-12-2.7-2.5-1.4-17.9-.8-20.9-.9v-3.9h15.3c1.8.3,4.2-4.3,5.3-5.2,8.5.8,9.2-12.7.6-12.6-5.2-.7-8.4,7.8-4.8,10.3l-2.2,2.7h-14.2v-4.4c12.5-.2,11.9,2.4,11.6-10.9,6.2-2.2,4.6-11.9-2.3-12.2-6.9-.3-8.6,10.5-2.3,12.2v6.3h-6.9c0-7.7-2.1-21.7,9.5-21.7,11.9.9,7.2,10.5,11.4,12,6.1.7,10.7,5.8,10.7,11.9,1,7.7-5.2,6.2-2.1,10.6,8.7,3.2,8.1,16.1-1.4,18.3h0v-.2h.4ZM60,79.7c0-2.2,3.5-2.3,3.4,0h0c0,2.2-3.5,2.3-3.4,0ZM68.6,66.8c0-2.2,3.5-2.3,3.4,0h0c0,2.2-3.5,2.3-3.4,0h0ZM77.3,54.8c0-2.2,3.3-2.2,3.3-.1h0c0,2-3.3,2.1-3.3,0h0ZM71.9,35.8c0-2,3.3-2.1,3.3,0,0,2.2-3.5,2.3-3.4,0h0ZM60,21.2c0-2.2,3.5-2.3,3.4,0h0c0,2.2-3.5,2.3-3.4,0Z"/>
</svg>